<?xml version="1.0" encoding="UTF-8"?><svg xmlns="http://www.w3.org/2000/svg" viewBox="0 0 934.41 524.97"><defs><style>.c{fill:none;stroke:#000;stroke-miterlimit:10;stroke-width:6px;}</style></defs><g id="a"><path d="M511.56,474.62c3.64-4.87,7.32-9.72,10.93-14.62,22.45-30.53,43-62.19,56.61-97.82,6.22-16.26,10.51-32.94,11-50.48,.83-32.21-12.94-56.47-39.89-73.5-21.06-13.3-44.58-19.8-68.83-23.91-44.19-7.49-88.59-6.83-133-3.16-71.7,6-142.6,19.37-211.56,39.91-15.93,4.71-31.52,10.54-47.27,15.86-1.42,.62-3,.81-4.53,.54,11.57-7.07,23.09-14.21,34.7-21.2,70.12-42.31,143.13-79.62,218.5-111.66,94.2-39.93,190.66-73,291-93.94,50.11-10.46,100.66-17.84,152.05-17.37,27.41,.26,54.55,2.7,80.55,12.15,12.83,4.66,24.67,11.09,33.74,21.56,15.51,17.89,15.78,38.42,9.49,59.78-6.93,23.53-19.86,43.9-34.42,63.28-28.17,37.5-61.61,70-96.61,101-62.86,55.61-130.4,105.14-199.5,152.61-20.57,14.14-41.36,28-62.05,41.92l-.91-.95Z"/></g><g id="b"><path class="c" d="M15.81,298.83S209.31,160.83,415.25,80.37C621.18-.08,862.67-32.69,921.75,56c87.45,131.28-447.75,458.95-447.75,458.95,0,0,125.93-180.86,81.47-241.76C478.64,167.94,15.81,298.83,15.81,298.83Z"/></g></svg>